<?xml version="1.0" encoding="UTF-8" standalone="no"?>
<!-- Created with Inkscape (http://www.inkscape.org/) -->

<svg
   width="210mm"
   height="297mm"
   viewBox="10 35 195 205"
   version="1.1"
   id="svg1"
   inkscape:version="1.4.2 (f4327f4, 2025-05-13)"
   sodipodi:docname="UniThread_Logo.svg"
   xmlns:inkscape="http://www.inkscape.org/namespaces/inkscape"
   xmlns:sodipodi="http://sodipodi.sourceforge.net/DTD/sodipodi-0.dtd"
   xmlns="http://www.w3.org/2000/svg"
   xmlns:svg="http://www.w3.org/2000/svg">
  <sodipodi:namedview
     id="namedview1"
     pagecolor="#ffffff"
     bordercolor="#000000"
     borderopacity="0.25"
     inkscape:showpageshadow="2"
     inkscape:pageopacity="0.0"
     inkscape:pagecheckerboard="0"
     inkscape:deskcolor="#d1d1d1"
     inkscape:document-units="mm"
     showgrid="false"
     inkscape:zoom="1"
     inkscape:cx="333"
     inkscape:cy="623.5"
     inkscape:window-width="2560"
     inkscape:window-height="1369"
     inkscape:window-x="-8"
     inkscape:window-y="1072"
     inkscape:window-maximized="1"
     inkscape:current-layer="g29">
    <inkscape:grid
       id="grid1"
       units="mm"
       originx="0"
       originy="0"
       spacingx="0.99999998"
       spacingy="1"
       empcolor="#0099e5"
       empopacity="0.30196078"
       color="#0099e5"
       opacity="0.14901961"
       empspacing="5"
       enabled="true"
       visible="false" />
  </sodipodi:namedview>
  <defs
     id="defs1" />
  <g
     inkscape:label="Layer 1"
     inkscape:groupmode="layer"
     id="layer1">
    <g
       id="g29">
      <path
         id="path1"
         style="fill:#808080;fill-opacity:1;stroke-width:0.255521"
         d="m 64.999133,89.999674 v 94.963716 h 0.001 v 0.0248 l 20.456116,20.0117 H 130.0117 l 19.98845,-19.99051 v -0.046 h -19.98121 v -5.2e-4 h 19.97862 V 89.999674 h -4.98936 l -15.00838,15.016136 v 69.95077 l -10.00146,9.99681 H 94.998853 l -9.999907,-9.99578 V 104.96 L 69.986943,89.999674 Z" />
      <path
         id="path19"
         style="fill:#32415f;stroke-width:0.2715"
         d="m 64.99965,65.000167 v 20.000846 h 29.998686 v 10.022644 l 1.60507,2.511992 23.391854,-2.559017 -1.31035,-3.447543 -23.677627,3.486091 -0.0031,-2.141986 V 169.7083 l 4.991943,5.28701 h 14.997534 l 5.01778,-5.28495 -0.006,-84.709347 h 29.99352 V 65.000167 Z m 30.004533,27.873027 -0.0058,2.150463 h -0.0041 z"
         sodipodi:nodetypes="ccccccccccccccccccccc" />
      <path
         d="m 160.00522,64.990627 v 64.993113 l 14.9996,-8.9111 V 54.921966 Z"
         style="stroke-width:0.248233"
         id="path26"
         sodipodi:nodetypes="ccccc" />
      <path
         d="m 39.994458,54.916311 0,65.125409 14.999601,9.95596 V 65.005442 Z"
         style="stroke-width:0.248233"
         id="path25"
         sodipodi:nodetypes="ccccc" />
      <path
         d="m 160.01141,140.23606 0,69.77116 14.9996,-10.01086 v -69.25049 z"
         style="stroke-width:0.256171"
         id="path26-6"
         sodipodi:nodetypes="ccccc" />
      <path
         d="m 40.000652,130.01488 0,69.98372 14.999601,10.01486 v -69.93508 z"
         style="stroke-width:0.256171"
         id="path25-8"
         sodipodi:nodetypes="ccccc" />
      <path
         id="rect26"
         style="fill:#000000;fill-opacity:1;stroke-width:0.261839"
         d="m 40.000142,40.003769 v 4.962345 L 54.957369,54.996653 H 160.02618 l 14.97451,-10.065019 v -4.927865 z"
         sodipodi:nodetypes="ccccccc" />
      <path
         id="rect27"
         style="fill:#000000;fill-opacity:1;stroke-width:0.264127"
         d="M 15.00942,39.999109 V 210.00165 l 14.999601,9.99474 V 39.999109 Z" />
      <path
         id="rect27-8"
         style="fill:#000000;fill-opacity:1;stroke-width:0.264127"
         d="M 185.00008,39.999626 V 219.98554 l 14.99908,-9.98802 V 39.999626 Z" />
      <path
         id="rect28"
         style="fill:#808080;fill-opacity:1;stroke-width:0.257459"
         d="m 39.993424,209.95928 v 15.02544 H 54.99871 v -5.02554 z" />
      <path
         id="rect28-3"
         style="fill:#808080;fill-opacity:1;stroke-width:0.257459"
         d="m 175.00017,209.95514 -15.00528,10.00611 v 5.0183 h 15.00528 z" />
      <path
         id="rect28-38"
         style="fill:#808080;fill-opacity:1;stroke-width:0.257459"
         d="m 200.0033,219.99846 -15.00322,9.9968 v 5.03122 h 15.0058 v -15.02802 z" />
      <path
         id="rect28-5"
         style="fill:#808080;fill-opacity:1;stroke-width:0.257459"
         d="m 15.015104,220.00879 v 15.01872 H 30.02039 v -5.01829 z" />
      <path
         d="M 27.456941,220.22736"
         style="fill:#0055d4;fill-opacity:1;stroke-width:0.264583"
         id="path1-7" />
      <path
         d="M 34.336108,219.96278"
         style="fill:#0055d4;fill-opacity:1;stroke-width:0.264583"
         id="path1-1" />
    </g>
  </g>
</svg>
